<?xml version="1.0" encoding="utf-8"?>
<!-- Generator: Adobe Illustrator 27.5.0, SVG Export Plug-In . SVG Version: 6.00 Build 0)  -->
<svg version="1.1" xmlns="http://www.w3.org/2000/svg" xmlns:xlink="http://www.w3.org/1999/xlink" x="0px" y="0px"
	 viewBox="0 0 500 500" style="enable-background:new 0 0 500 500;" xml:space="preserve">
<g id="Background_Simple">
	<g>
		<path style="fill:#92E3A9;" d="M461.517,101.555c-1.584-2.687-3.246-5.323-4.987-7.903
			c-23.183-34.346-63.071-57.838-102.312-68.458c-17.184-4.651-34.93-7.089-52.711-7.692
			c-116.614-3.953-163.062,87.955-201.604,111.673S2.065,193.412,6.018,278.402s65.225,165.039,183.816,169.98
			c118.591,4.941,126.497-48.424,192.71-68.19c43.819-13.08,74.952-57.26,90.197-98.088
			C493.516,226.462,492.538,154.189,461.517,101.555z"/>
		<path style="opacity:0.7;fill:#FFFFFF;" d="M461.517,101.555c-1.584-2.687-3.246-5.323-4.987-7.903
			c-23.183-34.346-63.071-57.838-102.312-68.458c-17.184-4.651-34.93-7.089-52.711-7.692
			c-116.614-3.953-163.062,87.955-201.604,111.673S2.065,193.412,6.018,278.402s65.225,165.039,183.816,169.98
			c118.591,4.941,126.497-48.424,192.71-68.19c43.819-13.08,74.952-57.26,90.197-98.088
			C493.516,226.462,492.538,154.189,461.517,101.555z"/>
	</g>
</g>
<g id="Window">
	<g>
		<polyline style="fill:none;stroke:#263238;stroke-linecap:round;stroke-linejoin:round;stroke-miterlimit:10;" points="
			486.996,95.204 369.034,95.204 373.816,87.01 486.996,87.01 		"/>
		<polyline style="fill:none;stroke:#263238;stroke-linecap:round;stroke-linejoin:round;stroke-miterlimit:10;" points="
			486.996,103.397 369.034,103.397 373.816,95.204 486.996,95.204 		"/>
		<polyline style="fill:none;stroke:#263238;stroke-linecap:round;stroke-linejoin:round;stroke-miterlimit:10;" points="
			486.996,111.59 369.034,111.59 373.816,103.397 486.996,103.397 		"/>
		<polyline style="fill:none;stroke:#263238;stroke-linecap:round;stroke-linejoin:round;stroke-miterlimit:10;" points="
			486.996,119.784 369.034,119.784 373.816,111.59 486.996,111.59 		"/>
		<polyline style="fill:none;stroke:#263238;stroke-linecap:round;stroke-linejoin:round;stroke-miterlimit:10;" points="
			486.996,127.977 369.034,127.977 373.816,119.784 486.996,119.784 		"/>
		<polyline style="fill:none;stroke:#263238;stroke-linecap:round;stroke-linejoin:round;stroke-miterlimit:10;" points="
			486.996,136.171 369.034,136.171 373.816,127.977 486.996,127.977 		"/>
		<polyline style="fill:none;stroke:#263238;stroke-linecap:round;stroke-linejoin:round;stroke-miterlimit:10;" points="
			486.996,144.364 369.034,144.364 373.816,136.171 486.996,136.171 		"/>
		<polyline style="fill:none;stroke:#263238;stroke-linecap:round;stroke-linejoin:round;stroke-miterlimit:10;" points="
			486.996,152.557 369.034,152.557 373.816,144.364 486.996,144.364 		"/>
		<polyline style="fill:none;stroke:#263238;stroke-linecap:round;stroke-linejoin:round;stroke-miterlimit:10;" points="
			486.996,160.751 369.034,160.751 373.816,152.557 486.996,152.557 		"/>
		<polyline style="fill:none;stroke:#263238;stroke-linecap:round;stroke-linejoin:round;stroke-miterlimit:10;" points="
			486.996,168.944 369.034,168.944 373.816,160.751 486.996,160.751 		"/>
		<polyline style="fill:none;stroke:#263238;stroke-linecap:round;stroke-linejoin:round;stroke-miterlimit:10;" points="
			486.996,177.137 369.034,177.137 373.816,168.944 486.996,168.944 		"/>
		<polyline style="fill:none;stroke:#263238;stroke-linecap:round;stroke-linejoin:round;stroke-miterlimit:10;" points="
			486.996,185.331 369.034,185.331 373.816,177.137 486.996,177.137 		"/>
		<polyline style="fill:none;stroke:#263238;stroke-linecap:round;stroke-linejoin:round;stroke-miterlimit:10;" points="
			486.996,193.524 369.034,193.524 373.816,185.331 486.996,185.331 		"/>
		<polyline style="fill:none;stroke:#263238;stroke-linecap:round;stroke-linejoin:round;stroke-miterlimit:10;" points="
			486.996,201.717 369.034,201.717 373.816,193.524 486.996,193.524 		"/>
		<polyline style="fill:none;stroke:#263238;stroke-linecap:round;stroke-linejoin:round;stroke-miterlimit:10;" points="
			486.996,209.911 369.034,209.911 373.816,201.717 486.996,201.717 		"/>
		<polyline style="fill:none;stroke:#263238;stroke-linecap:round;stroke-linejoin:round;stroke-miterlimit:10;" points="
			486.996,218.104 369.034,218.104 373.816,209.911 486.996,209.911 		"/>
		<polyline style="fill:none;stroke:#263238;stroke-linecap:round;stroke-linejoin:round;stroke-miterlimit:10;" points="
			486.996,226.298 369.034,226.298 373.816,218.104 486.996,218.104 		"/>
		<polyline style="fill:none;stroke:#263238;stroke-linecap:round;stroke-linejoin:round;stroke-miterlimit:10;" points="
			486.996,234.491 369.034,234.491 373.816,226.298 486.996,226.298 		"/>
		<polyline style="fill:none;stroke:#263238;stroke-linecap:round;stroke-linejoin:round;stroke-miterlimit:10;" points="
			486.996,242.684 369.034,242.684 373.816,234.491 486.996,234.491 		"/>
		<polyline style="fill:none;stroke:#263238;stroke-linecap:round;stroke-linejoin:round;stroke-miterlimit:10;" points="
			486.996,250.878 369.034,250.878 373.816,242.684 486.996,242.684 		"/>
		<polyline style="fill:none;stroke:#263238;stroke-linecap:round;stroke-linejoin:round;stroke-miterlimit:10;" points="
			486.996,259.071 369.034,259.071 373.816,250.878 486.996,250.878 		"/>
		<polyline style="fill:none;stroke:#263238;stroke-linecap:round;stroke-linejoin:round;stroke-miterlimit:10;" points="
			486.996,267.264 369.034,267.264 373.816,259.071 486.996,259.071 		"/>
		<polyline style="fill:none;stroke:#263238;stroke-linecap:round;stroke-linejoin:round;stroke-miterlimit:10;" points="
			486.996,275.458 369.034,275.458 373.816,267.264 486.996,267.264 		"/>
		<polyline style="fill:none;stroke:#263238;stroke-linecap:round;stroke-linejoin:round;stroke-miterlimit:10;" points="
			486.996,283.651 369.034,283.651 373.816,275.458 486.996,275.458 		"/>
		<polyline style="fill:none;stroke:#263238;stroke-linecap:round;stroke-linejoin:round;stroke-miterlimit:10;" points="
			486.996,291.845 369.034,291.845 373.816,283.651 486.996,283.651 		"/>
		<polyline style="fill:none;stroke:#263238;stroke-linecap:round;stroke-linejoin:round;stroke-miterlimit:10;" points="
			486.996,300.038 369.034,300.038 373.816,291.845 486.996,291.845 		"/>
		<polyline style="fill:none;stroke:#263238;stroke-linecap:round;stroke-linejoin:round;stroke-miterlimit:10;" points="
			486.996,308.231 369.034,308.231 373.816,300.038 486.996,300.038 		"/>
		<polyline style="fill:none;stroke:#263238;stroke-linecap:round;stroke-linejoin:round;stroke-miterlimit:10;" points="
			486.996,316.425 369.034,316.425 373.816,308.231 486.996,308.231 		"/>
		<polyline style="fill:none;stroke:#263238;stroke-linecap:round;stroke-linejoin:round;stroke-miterlimit:10;" points="
			486.996,72.858 361.861,72.858 361.861,87.01 486.996,87.01 		"/>
	</g>
</g>
<g id="Plant">
	<g>
		<g>
			<g>
				<path style="fill:#263238;" d="M75.527,210.27l0.002-0.005c0.014-0.037-0.003-0.079-0.04-0.095
					c-0.037-0.016-0.081,0.001-0.097,0.039c-2.241,5.175-3.816,10.606-5.131,16.086c-1.269,5.494-2.188,11.068-2.831,16.676
					l-0.401,4.215c-0.062,0.703-0.138,1.405-0.189,2.109l-0.115,2.115c-0.061,1.411-0.147,2.821-0.187,4.232l0.039,4.236
					l0.047,2.117c0.031,0.705,0.082,1.409,0.13,2.114c0.107,1.408,0.193,2.816,0.322,4.221c0.27,2.808,0.692,5.602,1.127,8.382
					c0.006,0.036,0.036,0.063,0.074,0.063c0.041,0,0.074-0.034,0.074-0.075v-0.004c-0.007-1.412-0.067-2.816-0.099-4.221
					c-0.04-1.404-0.163-2.801-0.143-4.206c0.006-1.404-0.03-2.804-0.046-4.204l-0.039-2.099l0.037-2.1l0.019-4.197l0.114-4.195
					l0.044-2.099c0.027-0.699,0.079-1.397,0.118-2.096l0.258-4.193c0.491-5.579,1.258-11.138,2.375-16.632
					C72.1,220.964,73.479,215.497,75.527,210.27z"/>
				<path style="fill:#263238;" d="M76.128,232.218c0.011-0.038-0.009-0.08-0.046-0.093c-0.039-0.013-0.081,0.007-0.094,0.046
					c-1.208,3.488-2.172,7.055-2.988,10.66c-0.779,3.611-1.391,7.27-1.764,10.956c-0.373,3.673-0.783,7.35-0.834,11.044
					c-0.057,3.691,0.002,7.387,0.392,11.075c0.004,0.034,0.031,0.063,0.066,0.066c0.041,0.004,0.078-0.025,0.082-0.066
					c0.426-3.677,0.687-7.345,0.941-11.012c0.26-3.665,0.295-7.341,0.534-11.007c0.222-3.655,0.68-7.296,1.309-10.912
					C74.344,239.356,75.113,235.753,76.128,232.218z"/>
				<path style="fill:#263238;" d="M88.296,239.939c-0.022-0.035-0.068-0.045-0.102-0.023c-3.046,1.928-5.762,4.357-8.136,7.093
					c-1.167,1.389-2.251,2.842-3.181,4.424l-0.654,1.234l-0.512,1.282c-0.184,0.425-0.314,0.863-0.447,1.299
					c-0.131,0.437-0.278,0.873-0.396,1.313c-0.914,3.527-1.519,7.12-1.683,10.733c-0.147,3.61-0.078,7.226,0.404,10.81
					c0.005,0.034,0.033,0.062,0.069,0.064c0.041,0.003,0.077-0.028,0.08-0.069l0.927-10.701c0.37-3.538,0.596-7.096,1.355-10.551
					c0.097-0.43,0.221-0.851,0.329-1.278c0.111-0.426,0.217-0.854,0.375-1.26l0.435-1.237l0.559-1.168
					c0.824-1.546,1.832-3.025,2.915-4.426c2.173-2.804,4.729-5.36,7.64-7.436l0.004-0.003
					C88.309,240.016,88.317,239.972,88.296,239.939z"/>
				<path style="fill:#263238;" d="M82.407,253.687c-1.658,1.07-2.767,2.754-3.7,4.448c-0.889,1.731-1.589,3.566-2.073,5.449
					c-0.146,0.466-0.26,0.939-0.362,1.413l-0.336,1.423c-0.171,0.956-0.305,1.921-0.359,2.89c-0.013,0.971-0.04,1.941,0.025,2.908
					c0.081,0.967,0.191,1.933,0.381,2.89c0.007,0.028,0.03,0.053,0.059,0.059c0.041,0.008,0.081-0.018,0.089-0.059
					c0.234-0.955,0.388-1.901,0.513-2.845c0.15-0.942,0.297-1.878,0.409-2.815c0.138-0.933,0.261-1.863,0.334-2.804
					c0.13-0.927,0.199-1.876,0.402-2.792c0.326-1.855,0.862-3.666,1.587-5.398c0.722-1.718,1.662-3.429,3.106-4.64l0.011-0.009
					c0.028-0.024,0.035-0.065,0.015-0.096C82.487,253.675,82.441,253.665,82.407,253.687z"/>
				<path style="fill:#263238;" d="M65.342,264.406c-0.4-4.75-1.184-9.454-1.924-14.154c-0.743-4.701-1.562-9.388-2.422-14.066
					c-0.891-4.673-1.821-9.337-2.829-13.985c-0.009-0.039-0.047-0.064-0.086-0.057c-0.04,0.007-0.067,0.046-0.06,0.086
					c0.813,4.683,1.549,9.379,2.243,14.079c0.713,4.697,1.384,9.4,1.978,14.111c0.581,4.713,1.033,9.437,1.624,14.142l1.738,14.141
					c0.004,0.035,0.034,0.064,0.071,0.066c0.041,0.002,0.076-0.03,0.078-0.071c0.054-1.192,0.056-2.383,0.085-3.578
					c0.011-1.194-0.049-2.383-0.07-3.576C65.725,269.157,65.521,266.783,65.342,264.406z"/>
				<path style="fill:#263238;" d="M62.494,264.337c-0.254-1.882-0.6-3.752-0.959-5.617l-0.667-2.773
					c-0.218-0.925-0.425-1.851-0.696-2.764c-0.948-3.68-2.159-7.297-3.631-10.803l-0.569-1.307l-0.633-1.279
					c-0.403-0.861-0.889-1.682-1.351-2.511c-0.993-1.618-2.024-3.235-3.429-4.546c-0.029-0.027-0.073-0.027-0.102,0.001
					c-0.029,0.028-0.03,0.075-0.002,0.104l0.007,0.007c1.298,1.346,2.245,3.008,3.136,4.649c0.413,0.845,0.85,1.675,1.203,2.547
					l0.558,1.293l0.495,1.32c1.316,3.517,2.372,7.132,3.166,10.806c0.433,1.828,0.72,3.691,1.074,5.533l0.445,2.784
					c0.161,0.926,0.359,1.845,0.49,2.777c0.296,1.857,0.638,3.71,0.962,5.568c0.288,1.863,0.628,3.724,1.021,5.585
					c0.007,0.034,0.037,0.061,0.073,0.061c0.041,0,0.075-0.033,0.075-0.074c0.008-1.898-0.036-3.797-0.133-5.693
					C62.915,268.112,62.691,266.227,62.494,264.337z"/>
				<path style="fill:#263238;" d="M58.563,264.58c-0.88-2.492-1.898-4.932-3.008-7.324c-1.139-2.379-2.368-4.713-3.784-6.936
					c-0.022-0.031-0.067-0.044-0.1-0.024c-0.035,0.021-0.047,0.066-0.026,0.102c1.236,2.309,2.282,4.717,3.229,7.153
					c0.964,2.429,1.833,4.895,2.562,7.4c0.743,2.502,1.275,5.052,1.941,7.565c0.7,2.511,1.266,5.049,2.038,7.592
					c0.009,0.03,0.038,0.055,0.071,0.055c0.041,0.001,0.075-0.033,0.076-0.074c0.037-2.653-0.223-5.305-0.739-7.903
					C60.356,269.572,59.438,267.07,58.563,264.58z"/>
				<path style="fill:#263238;" d="M58.4,272.882c-0.45-1.561-1.219-3.015-2.091-4.385c-0.857-1.377-1.851-2.679-3.044-3.782
					c-0.614-0.532-1.242-1.044-1.936-1.46c-0.684-0.427-1.409-0.788-2.196-0.993c-0.034-0.009-0.071,0.008-0.086,0.041
					c-0.017,0.037,0,0.081,0.038,0.098l0.009,0.004c1.423,0.633,2.626,1.682,3.643,2.83c1.03,1.15,1.852,2.469,2.538,3.843
					c0.721,1.365,1.093,2.873,1.72,4.278c0.277,0.721,0.551,1.446,0.871,2.166c0.271,0.734,0.572,1.467,0.955,2.195l0.002,0.004
					c0.012,0.023,0.036,0.039,0.064,0.041c0.042,0.002,0.078-0.031,0.079-0.073c0.034-0.813-0.014-1.621-0.091-2.428
					C58.759,274.462,58.59,273.67,58.4,272.882z"/>
			</g>
			<path style="fill:#92E3A9;" d="M58.693,229.001c0,0-7.784-1.796-9.581-10.179c-1.796-8.383,3.992-4.79-1.198-17.964
				c-5.189-13.173-3.992-16.167-2.196-19.959c1.797-3.792,2.794-2.595,4.391,2.395c1.597,4.99,7.385,12.774,9.581,27.344
				C61.887,225.209,58.693,229.001,58.693,229.001z"/>
			<path style="fill:#92E3A9;" d="M74.062,214.83c0,0-5.189-1.796-5.389-11.576c-0.2-9.78,3.792-7.784,4.391-19.959
				c0.599-12.175,1.397-20.758,3.593-20.957c2.196-0.199,7.984,5.988,9.98,19.56c1.996,13.572-2.595,22.554-6.587,26.546
				C76.058,212.435,74.062,214.83,74.062,214.83z"/>
			<path style="fill:#92E3A9;" d="M55.899,240.777c0,0-1.198-7.185-3.593-10.578c-2.395-3.393-7.585-6.387-10.978-12.974
				c-3.393-6.587-7.185-9.78-6.986-0.399c0.2,9.381,4.391,14.171,9.581,17.365C49.113,237.384,55.899,240.777,55.899,240.777z"/>
			<path style="fill:#92E3A9;" d="M53.703,253.152c0,0-4.79-9.181-11.776-15.968c-6.986-6.786-12.575-10.179-10.579-6.786
				c1.996,3.393,4.391,3.193,7.784,9.181c3.393,5.988,2.395,10.379,7.186,13.772C51.109,256.745,53.703,253.152,53.703,253.152z"/>
			<path style="fill:#92E3A9;" d="M53.105,264.928c-0.2-0.599-0.399-4.99-7.185-8.583c-6.786-3.593-13.173-2.196-12.375-0.399
				c0.798,1.796,4.99,4.79,9.181,6.587C46.917,264.329,53.105,264.928,53.105,264.928z"/>
			<path style="fill:#92E3A9;" d="M73.663,241.176c0,0-2.994-3.792-1.397-11.776c1.597-7.984,5.189-5.988,9.181-10.179
				c3.992-4.192,3.194-4.79,7.185-9.181c3.992-4.391,7.585-6.786,9.181-4.99c1.597,1.796-0.798,7.385-3.193,10.578
				c-2.395,3.194-6.187,4.79-7.984,8.782c-1.796,3.992-0.998,10.379-5.589,13.373C76.457,240.777,73.663,241.176,73.663,241.176z"/>
			<path style="fill:#92E3A9;" d="M83.643,243.372c0,0,7.185-8.183,12.375-14.171c5.189-5.988,7.185-10.579,7.385-6.587
				c0.199,3.992,1.796,7.185-2.395,12.375C96.816,240.179,83.643,243.372,83.643,243.372z"/>
			<path style="fill:#92E3A9;" d="M79.85,256.545c0,0-0.2-3.193,11.177-10.578c11.377-7.385,16.167-8.782,14.969-5.788
				c-1.198,2.994-6.187,5.988-11.576,11.377C89.032,256.944,79.85,256.545,79.85,256.545z"/>
			<path style="fill:none;stroke:#263238;stroke-linecap:round;stroke-linejoin:round;stroke-miterlimit:10;" d="M59.168,228.151
				c0,0-2.67-14.319-5.465-24.498c-2.794-10.179-4.591-16.367-4.591-16.367"/>
			<path style="fill:none;stroke:#263238;stroke-linecap:round;stroke-linejoin:round;stroke-miterlimit:10;" d="M73.602,214.981
				c0,0,4.851-15.519,6.448-24.9c1.597-9.381-0.2-16.367-0.998-20.558"/>
			<path style="fill:none;stroke:#263238;stroke-linecap:round;stroke-linejoin:round;stroke-miterlimit:10;" d="M55.27,240.478
				c0,0-2.964-5.289-7.355-10.479c-4.391-5.189-7.784-7.984-9.78-12.974"/>
			<path style="fill:none;stroke:#263238;stroke-linecap:round;stroke-linejoin:round;stroke-miterlimit:10;" d="M73.663,241.176
				c0,0,1.597-9.581,5.389-14.57c3.792-4.99,11.377-12.774,14.371-17.764"/>
			<path style="fill:none;stroke:#263238;stroke-linecap:round;stroke-linejoin:round;stroke-miterlimit:10;" d="M52.636,264.71
				c0,0-6.716-4.373-11.507-6.768"/>
			<polygon style="fill:#263238;stroke:#263238;stroke-linecap:round;stroke-linejoin:round;stroke-miterlimit:10;" points="
				74.711,307.043 60.839,307.043 53.903,272.313 81.647,272.313 			"/>
		</g>
		
			<rect x="24.155" y="307.926" style="fill:none;stroke:#263238;stroke-linecap:round;stroke-linejoin:round;stroke-miterlimit:10;" width="86.91" height="143.407"/>
		<g>
			
				<rect x="32.546" y="321.656" style="fill:none;stroke:#263238;stroke-linecap:round;stroke-linejoin:round;stroke-miterlimit:10;" width="70.178" height="35.852"/>
			
				<ellipse style="fill:#263238;stroke:#263238;stroke-linecap:round;stroke-linejoin:round;stroke-miterlimit:10;" cx="67.635" cy="338.161" rx="16.782" ry="1.907"/>
		</g>
		<g>
			
				<rect x="32.546" y="365.136" style="fill:none;stroke:#263238;stroke-linecap:round;stroke-linejoin:round;stroke-miterlimit:10;" width="70.178" height="35.852"/>
			<path style="fill:#263238;stroke:#263238;stroke-linecap:round;stroke-linejoin:round;stroke-miterlimit:10;" d="M84.416,381.641
				c0,1.053-7.513,1.907-16.782,1.907s-16.782-0.854-16.782-1.907c0-1.053,7.513-1.907,16.782-1.907S84.416,380.588,84.416,381.641z
				"/>
		</g>
		<g>
			
				<rect x="32.546" y="408.616" style="fill:none;stroke:#263238;stroke-linecap:round;stroke-linejoin:round;stroke-miterlimit:10;" width="70.178" height="35.852"/>
			
				<ellipse style="fill:#263238;stroke:#263238;stroke-linecap:round;stroke-linejoin:round;stroke-miterlimit:10;" cx="67.635" cy="425.121" rx="16.782" ry="1.907"/>
		</g>
	</g>
</g>
<g id="Sign">
	<g>
		
			<rect x="208.922" y="76.246" style="fill:#FFFFFF;stroke:#263238;stroke-linecap:round;stroke-linejoin:round;stroke-miterlimit:10;" width="81.62" height="165.529"/>
		<g>
			<path style="fill:#263238;" d="M244.193,103.693V81.708h9.581v3.094h-5.103v5.836h3.936v3.121h-3.936v6.894h5.157v3.04H244.193z"
				/>
		</g>
		<g>
			<path style="fill:#263238;" d="M229.648,125.868v-16.216h7.067v2.282h-3.764v4.304h2.903v2.302h-2.903v5.085h3.804v2.242H229.648
				z"/>
		</g>
		<g>
			<path style="fill:#263238;" d="M230.47,143.279v-10.247h-1.864v-1.835h6.175v1.835h-1.835v10.247H230.47z"/>
		</g>
		<g>
			<path style="fill:#263238;" d="M249.224,143.443c-0.885,0-1.586-0.159-2.103-0.477c-0.517-0.318-0.887-0.773-1.111-1.365
				c-0.224-0.592-0.335-1.3-0.335-2.125v-4.504c0-0.825,0.112-1.531,0.335-2.118c0.224-0.587,0.594-1.034,1.111-1.342
				c0.517-0.308,1.218-0.462,2.103-0.462c0.895,0,1.603,0.157,2.125,0.47c0.522,0.313,0.895,0.761,1.119,1.342
				c0.224,0.582,0.336,1.285,0.336,2.111v4.504c0,0.826-0.112,1.534-0.336,2.125c-0.224,0.592-0.597,1.046-1.119,1.365
				C250.828,143.284,250.119,143.443,249.224,143.443z M249.224,141.668c0.318,0,0.552-0.072,0.701-0.216
				c0.149-0.144,0.249-0.338,0.299-0.582c0.05-0.243,0.074-0.505,0.074-0.783v-5.712c0-0.278-0.025-0.537-0.074-0.776
				c-0.05-0.239-0.149-0.43-0.299-0.574c-0.149-0.144-0.383-0.216-0.701-0.216c-0.298,0-0.522,0.072-0.671,0.216
				c-0.149,0.144-0.249,0.336-0.298,0.574c-0.05,0.239-0.074,0.497-0.074,0.776v5.712c0,0.279,0.022,0.54,0.067,0.783
				c0.045,0.244,0.142,0.438,0.291,0.582C248.688,141.596,248.916,141.668,249.224,141.668z"/>
		</g>
		<g>
			<path style="fill:#263238;" d="M225.806,159.857v-12.081h2.461v10.411h2.834v1.671H225.806z"/>
		</g>
		<g>
			<path style="fill:#263238;" d="M222.381,175.46v-10.9h3.458c0.655,0,1.189,0.124,1.601,0.37c0.413,0.247,0.72,0.604,0.922,1.07
				c0.202,0.467,0.303,1.032,0.303,1.696c0,0.781-0.133,1.391-0.397,1.83c-0.265,0.44-0.626,0.752-1.084,0.935
				c-0.457,0.184-0.982,0.276-1.574,0.276h-1.009v4.723H222.381z M224.602,169.176h0.781c0.323,0,0.572-0.051,0.747-0.154
				c0.175-0.103,0.294-0.267,0.357-0.491c0.063-0.224,0.094-0.512,0.094-0.861c0-0.332-0.025-0.61-0.074-0.834
				c-0.049-0.224-0.159-0.399-0.33-0.525c-0.171-0.126-0.44-0.189-0.807-0.189h-0.767V169.176z"/>
		</g>
		<g>
			<path style="fill:#263238;" d="M222.246,190.552v-9.104h3.967v1.281H224.1v2.416h1.63v1.293h-1.63v2.855h2.135v1.259H222.246z"/>
		</g>
		<g>
			<path style="fill:#263238;" d="M222.508,205.743v-6.112h2.581v0.845h-1.336v1.653h1.132v0.868h-1.132v2.747H222.508z"/>
		</g>
		<g>
			<path style="fill:#263238;" d="M231.502,205.743v-6.112h2.664v0.86h-1.419v1.622h1.094v0.868h-1.094v1.917h1.434v0.845H231.502z"
				/>
		</g>
		<g>
			<path style="fill:#263238;" d="M224.779,214.069v-5.324h1.301c0.451,0,0.803,0.058,1.055,0.174
				c0.252,0.116,0.43,0.298,0.536,0.546c0.105,0.248,0.158,0.564,0.158,0.95v1.939c0,0.394-0.053,0.719-0.158,0.973
				c-0.105,0.254-0.282,0.442-0.529,0.562c-0.248,0.121-0.593,0.181-1.035,0.181H224.779z M225.864,213.313h0.23
				c0.202,0,0.345-0.032,0.431-0.095c0.086-0.063,0.139-0.158,0.161-0.283c0.022-0.125,0.033-0.279,0.033-0.463v-2.195
				c0-0.184-0.014-0.332-0.043-0.444c-0.028-0.112-0.085-0.194-0.171-0.247c-0.086-0.052-0.225-0.079-0.418-0.079h-0.223V213.313z"
				/>
		</g>
		<g>
			<path style="fill:#263238;" d="M227.994,227.029v-4.603h0.938v3.967h1.08v0.637H227.994z"/>
		</g>
		<g>
			<path style="fill:#263238;" d="M233.547,227.029v-4.603h2.006v0.648h-1.068v1.222h0.824v0.654h-0.824v1.443h1.08v0.637H233.547z"
				/>
		</g>
		<g>
			<path style="fill:#263238;" d="M239.71,227.029v-4.603h1.943v0.637h-1.006v1.245h0.852v0.654h-0.852v2.069H239.71z"/>
		</g>
		<g>
			<path style="fill:#263238;" d="M229.739,232.425v-3.485h1.471v0.482h-0.761v0.942h0.645v0.495h-0.645v1.566H229.739z"/>
		</g>
		<g>
			<path style="fill:#263238;" d="M234.113,232.425v-3.485h0.852c0.296,0,0.525,0.038,0.691,0.114
				c0.165,0.076,0.282,0.195,0.351,0.357c0.069,0.162,0.103,0.37,0.103,0.622v1.269c0,0.258-0.034,0.47-0.103,0.637
				c-0.069,0.166-0.184,0.289-0.346,0.368c-0.162,0.079-0.388,0.118-0.678,0.118H234.113z M234.823,231.93h0.15
				c0.132,0,0.226-0.021,0.282-0.062c0.056-0.042,0.091-0.103,0.105-0.185c0.014-0.082,0.021-0.183,0.021-0.303v-1.437
				c0-0.121-0.009-0.217-0.028-0.29c-0.019-0.073-0.056-0.127-0.112-0.161c-0.056-0.034-0.147-0.052-0.273-0.052h-0.146V231.93z"/>
		</g>
		<g>
			<path style="fill:#263238;" d="M238.727,232.425v-3.485h1.106c0.21,0,0.38,0.039,0.512,0.118c0.132,0.079,0.23,0.193,0.295,0.342
				c0.064,0.149,0.097,0.33,0.097,0.542c0,0.249-0.042,0.445-0.127,0.585c-0.085,0.141-0.2,0.24-0.346,0.299
				c-0.146,0.059-0.314,0.088-0.503,0.088h-0.323v1.51H238.727z M239.437,230.415h0.25c0.103,0,0.183-0.016,0.239-0.05
				c0.056-0.033,0.094-0.085,0.114-0.157c0.02-0.072,0.03-0.163,0.03-0.275c0-0.106-0.008-0.195-0.024-0.267
				c-0.016-0.072-0.051-0.128-0.105-0.168s-0.141-0.06-0.258-0.06h-0.245V230.415z"/>
		</g>
		<g>
			<path style="fill:#263238;" d="M244.386,232.425v-3.485h0.71v3.003h0.817v0.482H244.386z"/>
		</g>
		<g>
			<path style="fill:#263238;" d="M250.186,232.425v-3.485h0.495l0.775,1.816v-1.816h0.585v3.485h-0.473l-0.774-1.928v1.928H250.186
				z"/>
		</g>
		<g>
			<path style="fill:#263238;" d="M257.497,232.472c-0.258,0-0.463-0.049-0.613-0.146c-0.151-0.098-0.256-0.233-0.316-0.407
				c-0.06-0.173-0.09-0.375-0.09-0.605v-1.252c0-0.241,0.03-0.448,0.09-0.622c0.06-0.173,0.166-0.307,0.316-0.402
				c0.15-0.095,0.355-0.142,0.613-0.142c0.25,0,0.445,0.042,0.587,0.125c0.142,0.083,0.242,0.201,0.301,0.353
				c0.059,0.152,0.088,0.329,0.088,0.529v0.292h-0.688v-0.327c0-0.08-0.004-0.155-0.013-0.226c-0.009-0.07-0.032-0.128-0.071-0.172
				c-0.039-0.044-0.105-0.067-0.2-0.067c-0.095,0-0.164,0.023-0.207,0.069c-0.043,0.046-0.07,0.105-0.082,0.178
				c-0.012,0.073-0.017,0.154-0.017,0.243v1.583c0,0.098,0.008,0.183,0.024,0.256c0.016,0.073,0.046,0.129,0.09,0.168
				c0.044,0.039,0.108,0.058,0.192,0.058c0.092,0,0.157-0.022,0.196-0.067c0.039-0.044,0.063-0.104,0.073-0.179
				c0.01-0.074,0.015-0.153,0.015-0.237v-0.34h0.688v0.288c0,0.204-0.029,0.384-0.086,0.54c-0.057,0.157-0.156,0.28-0.297,0.37
				C257.951,232.427,257.753,232.472,257.497,232.472z"/>
		</g>
		<g>
			<path style="fill:#263238;" d="M262.923,232.425v-3.485h1.519v0.49h-0.809v0.925h0.624v0.495h-0.624v1.093h0.817v0.482H262.923z"
				/>
		</g>
		<g>
			<path style="fill:#263238;" d="M270.701,232.472c-0.255,0-0.458-0.046-0.607-0.137c-0.149-0.092-0.256-0.223-0.321-0.394
				c-0.065-0.171-0.097-0.375-0.097-0.613v-1.299c0-0.238,0.032-0.441,0.097-0.611c0.065-0.169,0.172-0.298,0.321-0.387
				c0.149-0.089,0.351-0.134,0.607-0.134c0.258,0,0.462,0.045,0.613,0.135c0.15,0.091,0.258,0.22,0.323,0.387
				c0.064,0.168,0.097,0.371,0.097,0.609v1.299c0,0.238-0.032,0.443-0.097,0.613c-0.065,0.171-0.172,0.302-0.323,0.394
				C271.163,232.426,270.959,232.472,270.701,232.472z M270.701,231.96c0.092,0,0.159-0.021,0.202-0.063
				c0.043-0.041,0.072-0.097,0.086-0.168c0.014-0.07,0.022-0.146,0.022-0.226v-1.648c0-0.08-0.007-0.155-0.022-0.224
				c-0.014-0.069-0.043-0.124-0.086-0.166c-0.043-0.041-0.11-0.062-0.202-0.062c-0.086,0-0.151,0.021-0.194,0.062
				c-0.043,0.042-0.072,0.097-0.086,0.166c-0.014,0.069-0.021,0.143-0.021,0.224v1.648c0,0.081,0.006,0.156,0.019,0.226
				c0.013,0.07,0.041,0.126,0.084,0.168C270.546,231.939,270.612,231.96,270.701,231.96z"/>
		</g>
		<g>
			<path style="fill:#263238;" d="M246.693,227.092c-0.337,0-0.604-0.061-0.801-0.182c-0.197-0.121-0.338-0.294-0.423-0.52
				c-0.085-0.225-0.128-0.495-0.128-0.81v-1.716c0-0.314,0.043-0.583,0.128-0.807c0.085-0.223,0.226-0.394,0.423-0.511
				c0.197-0.117,0.464-0.176,0.801-0.176c0.341,0,0.611,0.06,0.81,0.179c0.199,0.119,0.341,0.29,0.426,0.512
				c0.085,0.222,0.128,0.49,0.128,0.804v1.716c0,0.315-0.043,0.585-0.128,0.81c-0.085,0.225-0.227,0.399-0.426,0.52
				C247.304,227.031,247.034,227.092,246.693,227.092z M246.693,226.416c0.121,0,0.21-0.027,0.267-0.082
				c0.057-0.055,0.095-0.129,0.114-0.222c0.019-0.093,0.028-0.192,0.028-0.298v-2.177c0-0.106-0.009-0.204-0.028-0.295
				c-0.019-0.091-0.057-0.164-0.114-0.219c-0.057-0.055-0.146-0.082-0.267-0.082c-0.114,0-0.199,0.027-0.256,0.082
				c-0.057,0.055-0.095,0.128-0.114,0.219c-0.019,0.091-0.029,0.189-0.029,0.295v2.177c0,0.106,0.008,0.205,0.026,0.298
				c0.017,0.093,0.054,0.167,0.111,0.222C246.488,226.388,246.575,226.416,246.693,226.416z"/>
		</g>
		<g>
			<path style="fill:#263238;" d="M251.795,227.029v-4.603h1.125c0.39,0,0.694,0.05,0.912,0.151c0.218,0.1,0.372,0.258,0.463,0.472
				c0.091,0.214,0.136,0.488,0.136,0.821v1.677c0,0.341-0.045,0.621-0.136,0.841c-0.091,0.22-0.243,0.382-0.458,0.486
				c-0.214,0.104-0.512,0.156-0.895,0.156H251.795z M252.733,226.376h0.199c0.174,0,0.298-0.027,0.372-0.082
				c0.074-0.055,0.12-0.136,0.139-0.244c0.019-0.108,0.028-0.242,0.028-0.401v-1.898c0-0.159-0.012-0.287-0.037-0.384
				c-0.025-0.097-0.074-0.167-0.148-0.213c-0.074-0.045-0.194-0.068-0.361-0.068h-0.193V226.376z"/>
		</g>
		<g>
			<path style="fill:#263238;" d="M266.237,227.092c-0.341,0-0.611-0.065-0.81-0.193c-0.199-0.129-0.338-0.308-0.418-0.537
				c-0.08-0.229-0.119-0.495-0.119-0.798v-1.654c0-0.318,0.04-0.592,0.119-0.821c0.08-0.229,0.219-0.406,0.418-0.531
				c0.199-0.125,0.469-0.188,0.81-0.188c0.329,0,0.588,0.055,0.776,0.165c0.188,0.11,0.32,0.265,0.398,0.466
				c0.077,0.201,0.116,0.434,0.116,0.699v0.387h-0.909v-0.432c0-0.106-0.006-0.206-0.017-0.298
				c-0.011-0.093-0.043-0.169-0.094-0.227c-0.051-0.059-0.139-0.088-0.264-0.088c-0.125,0-0.216,0.031-0.273,0.091
				c-0.057,0.061-0.093,0.139-0.108,0.236c-0.015,0.097-0.022,0.204-0.022,0.321v2.091c0,0.129,0.01,0.241,0.031,0.338
				c0.021,0.097,0.06,0.171,0.119,0.222c0.059,0.051,0.143,0.077,0.253,0.077c0.121,0,0.208-0.029,0.259-0.088
				c0.051-0.059,0.083-0.137,0.097-0.236c0.013-0.099,0.02-0.203,0.02-0.312v-0.449h0.909v0.381c0,0.269-0.038,0.507-0.114,0.713
				c-0.076,0.207-0.206,0.369-0.392,0.489C266.836,227.032,266.575,227.092,266.237,227.092z"/>
		</g>
		<g>
			<path style="fill:#263238;" d="M259.181,227.029v-4.603h1.46c0.276,0,0.502,0.052,0.676,0.156
				c0.174,0.104,0.304,0.255,0.389,0.452c0.085,0.197,0.128,0.436,0.128,0.716c0,0.33-0.056,0.587-0.168,0.773
				c-0.112,0.186-0.264,0.317-0.457,0.395c-0.193,0.078-0.415,0.116-0.665,0.116h-0.426v1.995H259.181z M260.118,224.375h0.329
				c0.137,0,0.242-0.022,0.315-0.065c0.074-0.043,0.124-0.113,0.151-0.207c0.027-0.095,0.04-0.216,0.04-0.364
				c0-0.14-0.01-0.258-0.031-0.352c-0.021-0.095-0.067-0.169-0.139-0.222c-0.072-0.053-0.186-0.08-0.341-0.08h-0.324V224.375z"/>
		</g>
		<g>
			<path style="fill:#263238;" d="M272.011,227.029v-3.904h-0.711v-0.699h2.353v0.699h-0.699v3.904H272.011z"/>
		</g>
		<g>
			<path style="fill:#263238;" d="M232.104,214.069v-5.324h2.32v0.749h-1.236v1.413h0.953v0.756h-0.953v1.67h1.249v0.736H232.104z"
				/>
		</g>
		<g>
			<path style="fill:#263238;" d="M238.812,214.069v-5.324h2.248v0.736h-1.164v1.439h0.986v0.756h-0.986v2.393H238.812z"/>
		</g>
		<g>
			<path style="fill:#263238;" d="M245.821,214.069v-5.324h1.69c0.32,0,0.58,0.06,0.782,0.181c0.201,0.121,0.351,0.295,0.45,0.522
				c0.099,0.228,0.148,0.504,0.148,0.828c0,0.381-0.064,0.679-0.194,0.894c-0.129,0.215-0.306,0.367-0.529,0.457
				c-0.223,0.09-0.48,0.135-0.769,0.135h-0.493v2.307H245.821z M246.906,210.999h0.381c0.158,0,0.279-0.025,0.365-0.076
				c0.085-0.05,0.143-0.13,0.174-0.24c0.03-0.11,0.046-0.25,0.046-0.421c0-0.162-0.012-0.298-0.036-0.407
				c-0.024-0.11-0.078-0.195-0.161-0.257c-0.083-0.061-0.215-0.092-0.394-0.092h-0.375V210.999z"/>
		</g>
		<g>
			<path style="fill:#263238;" d="M255.555,214.141c-0.39,0-0.699-0.07-0.927-0.21c-0.228-0.14-0.391-0.34-0.49-0.601
				c-0.099-0.261-0.148-0.573-0.148-0.937v-1.985c0-0.364,0.049-0.675,0.148-0.934c0.098-0.258,0.262-0.456,0.49-0.591
				c0.228-0.136,0.537-0.204,0.927-0.204c0.394,0,0.706,0.069,0.936,0.207c0.23,0.138,0.395,0.335,0.493,0.591
				c0.099,0.256,0.148,0.566,0.148,0.93v1.985c0,0.364-0.049,0.676-0.148,0.937c-0.098,0.261-0.263,0.461-0.493,0.601
				C256.261,214.071,255.949,214.141,255.555,214.141z M255.555,213.359c0.14,0,0.243-0.032,0.309-0.096
				c0.066-0.063,0.11-0.149,0.132-0.256c0.022-0.107,0.033-0.222,0.033-0.345v-2.518c0-0.123-0.011-0.237-0.033-0.342
				c-0.022-0.105-0.066-0.189-0.132-0.253c-0.066-0.063-0.169-0.095-0.309-0.095c-0.132,0-0.23,0.032-0.296,0.095
				c-0.066,0.064-0.11,0.148-0.131,0.253c-0.022,0.105-0.033,0.219-0.033,0.342v2.518c0,0.123,0.01,0.238,0.03,0.345
				c0.02,0.107,0.062,0.193,0.128,0.256C255.318,213.327,255.419,213.359,255.555,213.359z"/>
		</g>
		<g>
			<path style="fill:#263238;" d="M261.044,214.069v-4.516h-0.822v-0.808h2.721v0.808h-0.808v4.516H261.044z"/>
		</g>
		<g>
			<path style="fill:#263238;" d="M267.967,214.069v-5.324h2.32v0.749h-1.236v1.413h0.953v0.756h-0.953v1.67h1.249v0.736H267.967z"
				/>
		</g>
		<g>
			<path style="fill:#263238;" d="M276.155,214.141c-0.395,0-0.707-0.074-0.937-0.224c-0.23-0.149-0.391-0.356-0.483-0.621
				c-0.092-0.265-0.138-0.573-0.138-0.923v-1.913c0-0.368,0.046-0.684,0.138-0.95c0.092-0.265,0.253-0.47,0.483-0.615
				c0.23-0.145,0.542-0.217,0.937-0.217c0.381,0,0.68,0.064,0.897,0.191c0.217,0.127,0.37,0.307,0.46,0.539
				c0.09,0.232,0.135,0.502,0.135,0.808v0.447h-1.052v-0.499c0-0.123-0.007-0.238-0.02-0.345c-0.013-0.107-0.049-0.195-0.108-0.263
				c-0.059-0.068-0.161-0.102-0.306-0.102c-0.145,0-0.25,0.035-0.315,0.105c-0.066,0.07-0.108,0.161-0.125,0.273
				c-0.018,0.112-0.026,0.236-0.026,0.371v2.419c0,0.149,0.012,0.279,0.036,0.391c0.024,0.112,0.07,0.197,0.138,0.256
				c0.068,0.059,0.166,0.089,0.293,0.089c0.14,0,0.24-0.034,0.299-0.102c0.059-0.068,0.096-0.159,0.112-0.273
				c0.015-0.114,0.023-0.234,0.023-0.362v-0.519h1.052v0.44c0,0.311-0.044,0.586-0.132,0.825c-0.088,0.239-0.239,0.427-0.454,0.565
				C276.847,214.072,276.544,214.141,276.155,214.141z"/>
		</g>
		<g>
			<path style="fill:#263238;" d="M240.995,205.743v-6.112h1.245v5.267h1.434v0.845H240.995z"/>
		</g>
		<g>
			<path style="fill:#263238;" d="M250.044,205.826c-0.447,0-0.802-0.08-1.064-0.241c-0.261-0.161-0.449-0.391-0.562-0.69
				c-0.113-0.299-0.17-0.658-0.17-1.075v-2.279c0-0.417,0.056-0.775,0.17-1.071c0.113-0.297,0.301-0.523,0.562-0.679
				c0.262-0.156,0.616-0.234,1.064-0.234c0.453,0,0.811,0.079,1.076,0.238c0.264,0.158,0.453,0.385,0.566,0.679
				c0.113,0.294,0.17,0.65,0.17,1.068v2.279c0,0.418-0.057,0.776-0.17,1.075c-0.113,0.299-0.302,0.53-0.566,0.69
				C250.855,205.745,250.497,205.826,250.044,205.826z M250.044,204.928c0.161,0,0.279-0.036,0.355-0.11
				c0.076-0.073,0.126-0.171,0.151-0.294c0.025-0.123,0.038-0.255,0.038-0.396v-2.89c0-0.141-0.013-0.272-0.038-0.392
				c-0.025-0.121-0.076-0.217-0.151-0.29c-0.076-0.073-0.194-0.109-0.355-0.109c-0.151,0-0.264,0.037-0.339,0.109
				c-0.076,0.073-0.126,0.17-0.151,0.29c-0.025,0.121-0.038,0.252-0.038,0.392v2.89c0,0.141,0.011,0.273,0.034,0.396
				c0.023,0.123,0.072,0.221,0.147,0.294C249.772,204.892,249.888,204.928,250.044,204.928z"/>
		</g>
		<g>
			<path style="fill:#263238;" d="M256.745,205.743v-6.112h1.939c0.367,0,0.667,0.069,0.898,0.208
				c0.231,0.138,0.404,0.338,0.517,0.6c0.113,0.262,0.17,0.579,0.17,0.951c0,0.438-0.074,0.78-0.223,1.026
				c-0.148,0.247-0.351,0.421-0.607,0.524c-0.257,0.103-0.551,0.155-0.883,0.155h-0.566v2.648H256.745z M257.99,202.219h0.438
				c0.181,0,0.321-0.029,0.419-0.087c0.098-0.058,0.165-0.15,0.2-0.275c0.035-0.126,0.053-0.287,0.053-0.483
				c0-0.186-0.014-0.342-0.041-0.468c-0.028-0.126-0.09-0.224-0.185-0.294c-0.096-0.07-0.246-0.106-0.453-0.106h-0.43V202.219z"/>
		</g>
		<g>
			<path style="fill:#263238;" d="M265.593,205.743v-0.77l1.554-4.497h-1.479v-0.845h2.724v0.679l-1.6,4.588h1.607v0.845H265.593z"
				/>
		</g>
		<g>
			<path style="fill:#263238;" d="M274.223,205.743v-6.112h1.494c0.518,0,0.922,0.067,1.211,0.2
				c0.289,0.133,0.494,0.342,0.615,0.626c0.121,0.284,0.181,0.648,0.181,1.09v2.226c0,0.453-0.06,0.825-0.181,1.117
				c-0.121,0.292-0.323,0.507-0.608,0.645c-0.284,0.138-0.68,0.208-1.188,0.208H274.223z M275.468,204.875h0.264
				c0.231,0,0.396-0.036,0.494-0.11c0.098-0.073,0.16-0.181,0.185-0.324c0.025-0.143,0.038-0.321,0.038-0.532v-2.52
				c0-0.211-0.016-0.381-0.049-0.509c-0.033-0.128-0.098-0.223-0.196-0.283c-0.098-0.06-0.258-0.091-0.479-0.091h-0.257V204.875z"/>
		</g>
		<g>
			<path style="fill:#263238;" d="M233.68,190.552v-9.104h2.225c0.772,0,1.373,0.099,1.804,0.298s0.736,0.51,0.916,0.933
				c0.18,0.423,0.27,0.965,0.27,1.624v3.316c0,0.674-0.09,1.229-0.27,1.663c-0.18,0.435-0.481,0.755-0.905,0.961
				c-0.423,0.206-1.013,0.309-1.77,0.309H233.68z M235.535,189.26h0.393c0.345,0,0.59-0.054,0.736-0.163
				c0.146-0.109,0.238-0.27,0.275-0.483c0.038-0.214,0.056-0.478,0.056-0.792v-3.754c0-0.315-0.025-0.568-0.073-0.759
				c-0.049-0.191-0.146-0.332-0.292-0.421c-0.146-0.09-0.384-0.135-0.714-0.135h-0.382V189.26z"/>
		</g>
		<g>
			<path style="fill:#263238;" d="M244.299,190.552v-9.104h3.844v1.259h-1.989v2.461h1.686v1.292h-1.686v4.091H244.299z"/>
		</g>
		<g>
			<path style="fill:#263238;" d="M256.123,190.676c-0.674,0-1.208-0.127-1.602-0.382c-0.393-0.255-0.669-0.609-0.826-1.062
				c-0.157-0.453-0.236-0.979-0.236-1.579v-3.27c0-0.629,0.079-1.171,0.236-1.624c0.157-0.453,0.433-0.804,0.826-1.051
				c0.393-0.247,0.927-0.371,1.602-0.371c0.652,0,1.163,0.109,1.534,0.326c0.371,0.217,0.633,0.524,0.787,0.922
				c0.153,0.397,0.231,0.858,0.231,1.382v0.764h-1.798v-0.854c0-0.21-0.011-0.406-0.034-0.59c-0.023-0.183-0.084-0.333-0.186-0.449
				c-0.101-0.116-0.275-0.174-0.523-0.174c-0.247,0-0.427,0.06-0.54,0.18c-0.112,0.12-0.184,0.275-0.214,0.467
				s-0.045,0.403-0.045,0.635v4.136c0,0.255,0.02,0.477,0.062,0.668c0.041,0.191,0.12,0.337,0.236,0.439
				c0.116,0.101,0.283,0.152,0.5,0.152c0.24,0,0.41-0.058,0.511-0.174c0.101-0.116,0.165-0.271,0.191-0.466
				c0.026-0.195,0.039-0.401,0.039-0.618v-0.888h1.798v0.753c0,0.532-0.075,1.002-0.225,1.41c-0.15,0.408-0.409,0.73-0.775,0.967
				C257.307,190.557,256.79,190.676,256.123,190.676z"/>
		</g>
		<g>
			<path style="fill:#263238;" d="M263.477,190.552v-1.146l2.315-6.698h-2.203v-1.259h4.057v1.012l-2.383,6.833h2.394v1.259H263.477
				z"/>
		</g>
		<g>
			<path style="fill:#263238;" d="M273.343,190.552v-9.104h2.888c0.547,0,0.993,0.103,1.337,0.309
				c0.345,0.206,0.601,0.504,0.77,0.893c0.169,0.39,0.253,0.862,0.253,1.416c0,0.652-0.111,1.161-0.332,1.528
				c-0.221,0.367-0.523,0.627-0.905,0.781c-0.382,0.154-0.82,0.231-1.315,0.231h-0.843v3.945H273.343z M275.197,185.303h0.652
				c0.27,0,0.478-0.043,0.624-0.129c0.146-0.086,0.245-0.223,0.298-0.41c0.052-0.187,0.079-0.427,0.079-0.719
				c0-0.277-0.021-0.51-0.062-0.697c-0.041-0.187-0.133-0.333-0.275-0.438c-0.142-0.105-0.367-0.157-0.674-0.157h-0.641V185.303z"/>
		</g>
		<g>
			<path style="fill:#263238;" d="M237.559,175.46v-10.9h4.75v1.534h-2.53v2.893h1.951v1.548h-1.951v3.418h2.557v1.507H237.559z"/>
		</g>
		<g>
			<path style="fill:#263238;" d="M251.598,175.608c-0.808,0-1.447-0.152-1.918-0.457c-0.471-0.305-0.801-0.729-0.989-1.272
				c-0.188-0.543-0.283-1.173-0.283-1.891v-3.916c0-0.753,0.094-1.402,0.283-1.945c0.188-0.543,0.518-0.962,0.989-1.258
				c0.471-0.296,1.11-0.444,1.918-0.444c0.78,0,1.393,0.13,1.837,0.39c0.444,0.26,0.758,0.628,0.942,1.104
				c0.184,0.476,0.276,1.027,0.276,1.655v0.915h-2.153v-1.023c0-0.251-0.014-0.487-0.04-0.707c-0.027-0.22-0.101-0.399-0.222-0.538
				c-0.121-0.139-0.33-0.209-0.626-0.209c-0.296,0-0.512,0.072-0.646,0.215c-0.135,0.144-0.22,0.329-0.256,0.559
				c-0.036,0.229-0.054,0.482-0.054,0.76v4.952c0,0.305,0.025,0.572,0.074,0.801c0.049,0.229,0.144,0.404,0.283,0.525
				c0.139,0.121,0.338,0.182,0.599,0.182c0.287,0,0.491-0.069,0.612-0.209c0.121-0.139,0.197-0.325,0.229-0.558
				c0.031-0.233,0.047-0.48,0.047-0.74v-1.063h2.153v0.902c0,0.637-0.09,1.2-0.269,1.689c-0.18,0.489-0.489,0.875-0.929,1.157
				C253.015,175.467,252.396,175.608,251.598,175.608z"/>
		</g>
		<g>
			<path style="fill:#263238;" d="M261.472,175.46v-10.9h4.602v1.507h-2.382v2.947h2.019v1.548h-2.019v4.898H261.472z"/>
		</g>
		<g>
			<path style="fill:#263238;" d="M272.286,175.46v-10.9h2.664c0.924,0,1.644,0.119,2.16,0.357c0.516,0.238,0.881,0.61,1.097,1.117
				c0.215,0.507,0.323,1.155,0.323,1.945v3.97c0,0.807-0.108,1.471-0.323,1.992c-0.215,0.52-0.577,0.904-1.083,1.15
				c-0.507,0.247-1.214,0.37-2.12,0.37H272.286z M274.507,173.913h0.471c0.413,0,0.707-0.065,0.882-0.195
				c0.175-0.13,0.284-0.323,0.329-0.579c0.045-0.256,0.067-0.572,0.067-0.949v-4.495c0-0.377-0.029-0.68-0.087-0.908
				c-0.058-0.229-0.175-0.397-0.35-0.505c-0.175-0.108-0.46-0.162-0.855-0.162h-0.457V173.913z"/>
		</g>
		<g>
			<path style="fill:#263238;" d="M239.57,159.857v-12.081h3.833c0.726,0,1.317,0.137,1.775,0.41
				c0.457,0.273,0.798,0.669,1.022,1.186c0.224,0.517,0.336,1.144,0.336,1.879c0,0.865-0.147,1.541-0.44,2.029
				c-0.293,0.487-0.694,0.833-1.201,1.036c-0.507,0.204-1.089,0.306-1.745,0.306h-1.118v5.235H239.57z M242.031,152.891h0.865
				c0.358,0,0.634-0.057,0.828-0.172c0.194-0.114,0.326-0.296,0.395-0.545c0.07-0.248,0.104-0.567,0.104-0.955
				c0-0.368-0.027-0.676-0.082-0.924c-0.055-0.249-0.177-0.442-0.365-0.582c-0.189-0.139-0.487-0.209-0.895-0.209h-0.85V152.891z"/>
		</g>
		<g>
			<path style="fill:#263238;" d="M252.911,159.857v-12.081h5.265v1.7h-2.804v3.207h2.163v1.715h-2.163v3.788h2.834v1.671H252.911z"
				/>
		</g>
		<g>
			<path style="fill:#263238;" d="M264.211,159.857v-12.081h2.953c1.024,0,1.822,0.132,2.394,0.395
				c0.572,0.264,0.977,0.676,1.216,1.238c0.239,0.562,0.358,1.281,0.358,2.155v4.4c0,0.895-0.119,1.631-0.358,2.207
				c-0.239,0.577-0.639,1.002-1.201,1.275c-0.562,0.274-1.345,0.41-2.349,0.41H264.211z M266.672,158.141h0.522
				c0.457,0,0.783-0.072,0.977-0.216c0.194-0.144,0.316-0.358,0.366-0.641c0.05-0.283,0.075-0.634,0.075-1.051v-4.982
				c0-0.418-0.032-0.753-0.097-1.007c-0.065-0.253-0.194-0.44-0.388-0.559c-0.194-0.119-0.51-0.179-0.947-0.179h-0.507V158.141z"/>
		</g>
		<g>
			<path style="fill:#263238;" d="M262.982,143.279v-1.521l3.072-8.889h-2.923v-1.671h5.384v1.342l-3.162,9.068h3.177v1.67H262.982z
				"/>
		</g>
		<g>
			<path style="fill:#263238;" d="M257.388,125.868v-16.216h5.145c0.974,0,1.768,0.184,2.382,0.551
				c0.614,0.367,1.071,0.898,1.371,1.591c0.3,0.694,0.451,1.535,0.451,2.523c0,1.161-0.197,2.069-0.591,2.723
				c-0.394,0.654-0.931,1.118-1.612,1.391c-0.681,0.274-1.461,0.411-2.342,0.411h-1.501v7.027H257.388z M260.691,116.519h1.161
				c0.48,0,0.851-0.077,1.111-0.23c0.26-0.153,0.437-0.397,0.53-0.731c0.093-0.334,0.14-0.761,0.14-1.281
				c0-0.494-0.037-0.907-0.11-1.241c-0.074-0.334-0.237-0.594-0.49-0.781c-0.254-0.187-0.654-0.28-1.201-0.28h-1.141V116.519z"/>
		</g>
		<rect x="219.21" y="193.713" style="fill:#263238;" width="61.044" height="2.557"/>
		<rect x="219.21" y="217.641" style="fill:#263238;" width="61.044" height="2.557"/>
	</g>
</g>
<g id="Seat">
	<path style="fill:#263238;stroke:#263238;stroke-linecap:round;stroke-linejoin:round;stroke-miterlimit:10;" d="M478.674,307.149
		c4.229-16.603,2.561-30.249-4.386-31.722c-7.794-1.652-19.276,12.639-25.645,31.922c-5.822,17.627-5.353,33.315,0.724,37.142
		l-28.979,107.662l49.25-1.056l16.468-133.121C486.766,312.651,483.554,308.207,478.674,307.149z"/>
</g>
<g id="Character_2">
	<g>
		<g>
			<path style="fill:#FFFFFF;stroke:#263238;stroke-linecap:round;stroke-linejoin:round;stroke-miterlimit:10;" d="
				M327.958,256.888c0,0-7.044,9.757-5.848,13.291c1.411,4.167-0.801,10.514-4.506,11.98c-2.545,1.007-4.519,1.861-4.253,3.987
				c0.266,2.126,3.721,4.519,3.721,4.519s2.113,10.615,2.645,14.336c0.532,3.721,1.595,4.253,5.582,4.785
				c3.987,0.532,5.848,0.266,6.911,0.266s2.924,0,2.924,0l11.43,16.481l6.911-7.975c0,0-6.911-12.759-3.722-26.582
				c3.19-13.823,10.367-15.949,3.19-25.519C345.768,256.888,333.54,252.901,327.958,256.888z"/>
			<path style="fill:#263238;" d="M327.095,278.901c0,1.361-0.468,2.465-1.046,2.465c-0.578,0-1.046-1.104-1.046-2.465
				c0-1.361,0.468-2.465,1.046-2.465C326.627,276.436,327.095,277.54,327.095,278.901z"/>
			<path style="fill:none;stroke:#263238;stroke-linecap:round;stroke-linejoin:round;stroke-miterlimit:10;" d="M320.522,294.513
				c0,0,5.378,0.448,8.366-2.988"/>
			<path style="fill:none;stroke:#263238;stroke-linecap:round;stroke-linejoin:round;stroke-miterlimit:10;" d="M324.854,271.954
				c0,0,2.241-3.436,5.378-0.149"/>
		</g>
		<path style="fill:#FFFFFF;stroke:#263238;stroke-linecap:round;stroke-linejoin:round;stroke-miterlimit:10;" d="M343.303,402.288
			c0,0-2.383,4.5-7.412,10.589c-5.03,6.089-6.618,14.56-5.03,20.913c1.588,6.353,9.53,8.736,14.295,9.53
			c4.765,0.794,8.471,2.647,9.53-7.412s-2.912-26.208-6.354-29.649C344.892,402.818,343.303,402.288,343.303,402.288z"/>
		<path style="fill:#92E3A9;stroke:#263238;stroke-linecap:round;stroke-linejoin:round;stroke-miterlimit:10;" d="M345.951,427.437
			c-0.404,3.84-0.191,17.697-0.068,24.045h71.249c0.626-2.491,0.697-6.519-1.822-12.397c-4.765-11.118-13.694-84.233-18.531-98.743
			c-4.5-13.501-6.055-14.731-15.354-20.384c-13.501-8.206-28.855,3.177-31.238,7.412c-2.383,4.236-3.177,9.53-3.177,9.53
			s-5.295,26.737-8.207,39.444c-2.912,12.707,1.324,19.06,4.5,25.943S346.48,422.408,345.951,427.437z"/>
		<path style="fill:#263238;stroke:#263238;stroke-linecap:round;stroke-linejoin:round;stroke-miterlimit:10;" d="M330.616,246.787
			c0,0-8.241-0.532-2.658,10.101c5.582,10.633,9.304,6.38,13.291,10.633c3.987,4.253,6.38,13.823,2.127,19.937
			c-4.253,6.114-7.975,6.646-2.127,14.355c5.848,7.709,7.443,9.57,5.582,13.823c-1.861,4.253-11.43,6.646-7.975,14.089
			c3.456,7.443,11.43,6.911,9.038,9.038s-7.709,0.797-5.051,4.785c2.658,3.987,14.62,3.722,13.291,0.798
			c-1.329-2.924-3.456-2.127-2.658-3.721c0.797-1.595-1.861-10.101,7.443-14.62c9.304-4.519,14.886-5.848,21.532,0.532
			s8.241,11.43,14.886,10.101c6.646-1.329,7.177-6.114,3.987-10.633c-3.19-4.519-3.721-2.127-1.063-9.038
			c2.658-6.911,9.57-10.101,0.532-16.481c-9.038-6.38-14.886-3.19-14.62-8.772c0.266-5.582,5.051-24.722-4.253-36.684
			c-9.304-11.962-25.253-15.684-33.228-14.886S331.148,243.065,330.616,246.787z"/>
		<path style="fill:#92E3A9;stroke:#263238;stroke-linecap:round;stroke-linejoin:round;stroke-miterlimit:10;" d="M358.922,333.459
			c0,0-4.765,9.001-3.441,21.443c1.324,12.442,8.207,55.328,8.207,55.328s-3.971,1.588-2.912,4.236
			c1.059,2.647,1.853,4.236,2.118,5.03c0.265,0.794-10.589,3.706-14.825,4.765c-4.236,1.059-8.207,6.089-7.148,11.383
			s8.736,7.677,14.03,9.265c5.295,1.588,34.15,1.588,41.033-0.794c6.883-2.383,10.324-11.648,6.089-24.62
			c-4.236-12.972-10.589-74.918-10.589-74.918"/>
		<path style="fill:none;stroke:#263238;stroke-linecap:round;stroke-linejoin:round;stroke-miterlimit:10;" d="M362.893,419.496
			c0,0,16.148,8.471,25.414,9.53"/>
		<path style="fill:none;stroke:#263238;stroke-linecap:round;stroke-linejoin:round;stroke-miterlimit:10;" d="M366.864,418.437
			c0,0,9.53,1.588,16.678,1.059"/>
		<path style="fill:#FFFFFF;stroke:#263238;stroke-linecap:round;stroke-linejoin:round;stroke-miterlimit:10;" d="M340.391,417.113
			c0,0-4.765,3.177-5.824,5.824c-1.059,2.647,0,7.942-0.265,11.913s1.588,5.295,7.942,8.471c6.353,3.177,11.383,3.971,10.324,1.588
			c-1.059-2.383-3.441-2.383-6.883-5.03c-3.441-2.647-3.971-8.736-1.853-10.589c2.118-1.853,0.794-3.971,6.618-4.236
			c5.824-0.265,9.001-2.118,8.471-3.971c-0.529-1.853-2.912-0.529-5.559-0.794C350.716,420.025,347.274,415.789,340.391,417.113z"/>
	</g>
</g>
<g id="Device">
	<g>
		<g>
			<path style="fill:#263238;" d="M306.23,387.664h-24.501c-5.963,0-11.597-2.295-15.862-6.461l-20.381-19.907
				c-4.172-4.075-6.564-9.756-6.564-15.587v-38.933c0-2.634,2.135-4.769,4.769-4.769c2.633,0,4.769,2.135,4.769,4.769v38.933
				c0,3.279,1.345,6.473,3.69,8.763l20.381,19.907c2.473,2.416,5.74,3.746,9.198,3.746h24.501c2.633,0,4.769,2.136,4.769,4.769
				C310.999,385.529,308.864,387.664,306.23,387.664z"/>
		</g>
		<polygon style="fill:#263238;" points="290.506,289.203 262.632,292.634 262.632,269.763 290.506,273.194 		"/>
		<polygon style="fill:#263238;" points="285.86,288.908 290.506,288.336 290.506,272.326 285.86,271.755 		"/>
		<rect x="230.382" y="268.931" style="fill:#263238;" width="28.313" height="24.427"/>
		<rect x="200.887" y="270.074" style="fill:#263238;" width="30.447" height="22.141"/>
		<rect x="195.434" y="262.358" style="fill:#263238;" width="27.98" height="11.844"/>
		<path style="fill:#263238;" d="M260.638,296.689L260.638,296.689c-1.38,0-2.498-1.118-2.498-2.498v-26.648
			c0-1.38,1.118-2.498,2.498-2.498l0,0c1.38,0,2.498,1.118,2.498,2.498v26.648C263.137,295.571,262.018,296.689,260.638,296.689z"/>
		<rect x="232.669" y="292.839" style="fill:#263238;" width="22.402" height="11.793"/>
		<rect x="236.879" y="304.275" style="fill:#263238;" width="13.463" height="5.003"/>
		<path style="fill:#263238;" d="M317.308,400.406h-17.511v-33.592l5.605-2.156c2.362-0.909,4.987-0.852,7.308,0.157l4.597,1.999
			V400.406z"/>
		<path style="fill:#FFFFFF;stroke:#263238;stroke-linecap:round;stroke-linejoin:round;stroke-miterlimit:10;" d="M312.117,374.949
			c0-2.02-1.638-3.658-3.658-3.658c-2.02,0-3.658,1.638-3.658,3.658c0,2.02,1.638,3.658,3.658,3.658
			C310.479,378.607,312.117,376.969,312.117,374.949z"/>
		
			<circle style="fill:#FFFFFF;stroke:#263238;stroke-linecap:round;stroke-linejoin:round;stroke-miterlimit:10;" cx="308.459" cy="390.4" r="3.658"/>
		
			<rect x="299.797" y="400.406" style="fill:#FFFFFF;stroke:#263238;stroke-linecap:round;stroke-linejoin:round;stroke-miterlimit:10;" width="17.868" height="7.862"/>
		<rect x="299.797" y="407.911" style="fill:#263238;" width="17.868" height="22.888"/>
		<rect x="298.368" y="407.911" style="fill:#263238;" width="20.727" height="11.444"/>
		
			<rect x="203.735" y="431.609" transform="matrix(0.7215 -0.6924 0.6924 0.7215 -241.638 267.1359)" style="fill:#FFFFFF;stroke:#263238;stroke-linecap:round;stroke-linejoin:round;stroke-miterlimit:10;" width="15.009" height="4.646"/>
		<polygon style="fill:#263238;" points="219.39,426.494 319.453,426.494 319.453,446.506 197.949,446.506 		"/>
		<polygon style="fill:#263238;" points="300.512,413.629 270.851,395.403 253.697,395.403 253.697,400.406 269.779,400.406 
			301.584,426.851 		"/>
		
			<rect x="258.701" y="400.763" style="fill:#FFFFFF;stroke:#263238;stroke-linecap:round;stroke-linejoin:round;stroke-miterlimit:10;" width="6.433" height="7.862"/>
		
			<rect x="246.55" y="408.625" style="fill:#FFFFFF;stroke:#263238;stroke-linecap:round;stroke-linejoin:round;stroke-miterlimit:10;" width="30.733" height="9.292"/>
		
			<rect x="254.412" y="417.917" style="fill:#FFFFFF;stroke:#263238;stroke-linecap:round;stroke-linejoin:round;stroke-miterlimit:10;" width="15.009" height="9.292"/>
		<g>
			
				<rect x="226.93" y="411.53" transform="matrix(0.9731 -0.2305 0.2305 0.9731 -90.0347 64.0257)" style="fill:#FFFFFF;stroke:#263238;stroke-linecap:round;stroke-linejoin:round;stroke-miterlimit:10;" width="4.12" height="11.598"/>
			
				<rect x="223.304" y="396.43" transform="matrix(0.9731 -0.2305 0.2305 0.9731 -87.6758 63.1756)" style="fill:#FFFFFF;stroke:#263238;stroke-linecap:round;stroke-linejoin:round;stroke-miterlimit:10;" width="6.433" height="20.727"/>
		</g>
		
			<rect x="224.036" y="422.563" style="fill:#FFFFFF;stroke:#263238;stroke-linecap:round;stroke-linejoin:round;stroke-miterlimit:10;" width="15.009" height="4.646"/>
		
			<rect x="346.612" y="255.316" style="fill:#FFFFFF;stroke:#263238;stroke-linecap:round;stroke-linejoin:round;stroke-miterlimit:10;" width="6.095" height="190.833"/>
		
			<rect x="294.794" y="258.889" style="fill:#FFFFFF;stroke:#263238;stroke-linecap:round;stroke-linejoin:round;stroke-miterlimit:10;" width="19.655" height="2.144"/>
		<rect x="301.942" y="256.745" style="fill:#263238;" width="12.865" height="6.79"/>
		<rect x="310.161" y="260.676" style="fill:#263238;" width="45.743" height="7.862"/>
		<rect x="324.775" y="309.635" style="fill:#263238;" width="31.129" height="5.291"/>
		<rect x="277.641" y="348.231" style="fill:#263238;" width="12.865" height="24.301"/>
		<rect x="292.219" y="329.29" style="fill:#263238;" width="10.155" height="24.301"/>
		<rect x="292.554" y="314.915" style="fill:#263238;" width="9.484" height="12.312"/>
		<path style="fill:#263238;" d="M302.038,307.572h-9.484v-21.523l6.406-5.793c1.185-1.071,3.078-0.231,3.078,1.366V307.572z"/>
		
			<rect x="292.554" y="308.483" style="fill:#FFFFFF;stroke:#263238;stroke-linecap:round;stroke-linejoin:round;stroke-miterlimit:10;" width="9.484" height="6.594"/>
		
			<rect x="291.046" y="325.081" style="fill:#FFFFFF;stroke:#263238;stroke-linecap:round;stroke-linejoin:round;stroke-miterlimit:10;" width="12.5" height="7.704"/>
		<rect x="266.131" y="329.29" style="fill:#263238;" width="10.155" height="24.301"/>
		
			<rect x="264.958" y="335.087" style="fill:#FFFFFF;stroke:#263238;stroke-linecap:round;stroke-linejoin:round;stroke-miterlimit:10;" width="12.5" height="7.704"/>
		<polygon style="fill:#263238;" points="263.346,352.519 304.086,352.519 295.938,363.597 269.865,363.597 		"/>
		
			<circle style="fill:#FFFFFF;stroke:#263238;stroke-linecap:round;stroke-linejoin:round;stroke-miterlimit:10;" cx="284.788" cy="357.522" r="3.658"/>
		<rect x="283.001" y="371.817" style="fill:#263238;" width="17.153" height="3.216"/>
		<rect x="259.773" y="316.425" style="fill:#263238;" width="21.799" height="13.58"/>
		<rect x="264.24" y="311.422" style="fill:#263238;" width="12.865" height="5.36"/>
		<polygon style="fill:#263238;" points="285.86,271.755 279.428,261.391 272.28,261.391 272.28,265.679 277.998,265.679 
			279.07,272.469 285.86,274.614 		"/>
		<rect x="274.782" y="254.958" style="fill:#263238;" width="3.216" height="7.505"/>
		<rect x="285.999" y="249.012" style="fill:#263238;" width="3.653" height="20.111"/>
		<polygon style="fill:#FFFFFF;stroke:#263238;stroke-linecap:round;stroke-linejoin:round;stroke-miterlimit:10;" points="
			234.4,258.889 211.171,258.889 211.171,257.103 208.669,257.103 208.669,262.463 211.171,262.463 211.171,261.034 234.4,261.034 
					"/>
		<rect x="234.042" y="257.103" style="fill:#263238;" width="51.818" height="6.075"/>
		<g>
			<path style="fill:#FFFFFF;stroke:#263238;stroke-linecap:round;stroke-linejoin:round;stroke-miterlimit:10;" d="
				M355.154,429.642c0-2.8-2.27-5.07-5.07-5.07c-2.8,0-5.07,2.27-5.07,5.07c0,2.8,2.27,5.07,5.07,5.07
				C352.884,434.712,355.154,432.442,355.154,429.642z"/>
			<path style="fill:#FFFFFF;stroke:#263238;stroke-linecap:round;stroke-linejoin:round;stroke-miterlimit:10;" d="
				M276.618,451.482h54.542v-16.999c0-6.059-4.912-10.971-10.971-10.971h-32.599c-6.059,0-10.971,4.912-10.971,10.971V451.482z"/>
			
				<rect x="196.029" y="445.632" style="fill:#FFFFFF;stroke:#263238;stroke-linecap:round;stroke-linejoin:round;stroke-miterlimit:10;" width="115.638" height="5.85"/>
			
				<rect x="263.891" y="439.782" style="fill:#FFFFFF;stroke:#263238;stroke-linecap:round;stroke-linejoin:round;stroke-miterlimit:10;" width="93.993" height="11.7"/>
		</g>
	</g>
</g>
<g id="Character_1">
	<g>
		<path style="fill:#FFFFFF;stroke:#263238;stroke-linecap:round;stroke-linejoin:round;stroke-miterlimit:10;" d="M207.009,292.215
			l-3.216,35.165L221,331.087l-1.059-12.707c0,0,4.5-5.03,5.03-8.207c0.529-3.177,1.324-8.471,1.324-13.766
			c0-1.315-0.016-2.762-0.041-4.192H207.009z"/>
		<g>
			<path style="fill:#FFFFFF;stroke:#263238;stroke-linecap:round;stroke-linejoin:round;stroke-miterlimit:10;" d="M76.988,399.376
				l-2.053,52.106h110.059c-0.891-10.299-2.662-30.964-3.439-41.252c-1.059-14.031-1.588-19.06-1.588-19.06
				s21.443,9.795,26.208,10.06c4.765,0.265,9.001-5.03,10.854-14.825s9.795-51.622,9.795-52.681c0-1.059-8.471-6.089-8.471-6.089
				l-10.589-9.265l-14.56,27.796c0,0-1.059-5.03-9.53-19.59c-8.471-14.56-14.295-19.06-20.119-22.502
				c-5.824-3.441-8.736-4.765-8.736-4.765l-26.737-23.561c0,0-23.031-5.559-24.355-4.236c-1.324,1.324-2.118,10.06-2.118,10.06
				s-27.267,28.59-32.297,36.532c-5.03,7.942-5.03,17.472-4.5,21.443C65.34,343.519,76.988,399.376,76.988,399.376z"/>
			<path style="fill:#263238;stroke:#263238;stroke-linecap:round;stroke-linejoin:round;stroke-miterlimit:10;" d="
				M115.374,285.809c0,0-11.913-9.266-10.854-9.795c1.059-0.53,22.237,1.588,22.237,1.588L115.374,285.809z"/>
		</g>
		<g>
			<path style="fill:none;stroke:#263238;stroke-linecap:round;stroke-linejoin:round;stroke-miterlimit:10;" d="M94.092,431
				c-1.439,2.526-2.767,4.744-3.921,6.509"/>
			<path style="fill:none;stroke:#263238;stroke-linecap:round;stroke-linejoin:round;stroke-miterlimit:10;" d="M118.684,382.594
				c0,0-12.084,25.474-21.611,43.032"/>
			
				<line style="fill:none;stroke:#263238;stroke-linecap:round;stroke-linejoin:round;stroke-miterlimit:10;" x1="145.613" y1="397.907" x2="132.941" y2="423.78"/>
		</g>
		<g>
			<path style="fill:#FFFFFF;stroke:#263238;stroke-linecap:round;stroke-linejoin:round;stroke-miterlimit:10;" d="
				M147.141,322.086l9.53,14.295l3.177-18.531c0,0-1.853-7.942-5.559-13.766c-3.706-5.824-8.206-6.618-9.001-0.53
				C144.494,309.644,147.141,322.086,147.141,322.086z"/>
			<polygon style="fill:#92E3A9;stroke:#263238;stroke-linecap:round;stroke-linejoin:round;stroke-miterlimit:10;" points="
				148.994,314.409 151.376,320.233 150.318,326.586 156.671,336.381 157.995,322.615 156.142,319.703 157.201,312.556 
				149.788,306.996 			"/>
			<path style="fill:#FFFFFF;stroke:#263238;stroke-linecap:round;stroke-linejoin:round;stroke-miterlimit:10;" d="
				M151.376,309.379l8.471,8.471c0,0,1.588-9.53-0.794-12.972c-2.382-3.441-3.441-3.441-3.441-3.441l-3.441,0.529L151.376,309.379z"
				/>
			<g>
				<path style="fill:#FFFFFF;stroke:#263238;stroke-linecap:round;stroke-linejoin:round;stroke-miterlimit:10;" d="
					M190.821,233.138c0,0,4.765,20.913,3.706,23.561c-1.059,2.647-3.441,4.5-3.441,4.5s5.294,13.501,4.236,15.619
					s-7.942,1.588-7.942,1.588s-3.177,12.442-3.971,15.619c-0.794,3.177-3.177,3.706-6.354,3.971
					c-3.177,0.265-12.177-2.912-12.177-2.912l-12.177,9.001l-1.324,5.294c0,0-2.118-0.53-11.383-12.707
					c-9.266-12.177-13.236-19.325-13.236-19.325s1.059-4.765,1.588-7.148c0.529-2.383,0.529-24.62,0.529-24.62
					s14.825-14.295,29.12-19.06C172.29,221.754,190.821,233.138,190.821,233.138z"/>
				<path style="fill:#263238;stroke:#263238;stroke-linecap:round;stroke-linejoin:round;stroke-miterlimit:10;" d="
					M176.526,241.609c0,0,1.324,6.354,0.265,7.412s-10.06,2.912-10.324,3.971c-0.265,1.059,1.059,6.089-1.059,6.618
					c-2.118,0.53-5.295,0.794-6.354-0.529c-1.059-1.324-2.647-6.618-5.824-9.795c-3.177-3.177-9.795,0.265-11.913,6.089
					c-2.118,5.824-1.853,8.471-2.647,12.177c-0.794,3.706-3.177,6.883-5.824,8.471c-2.647,1.588-4.765,2.118-5.824-2.912
					c-1.059-5.03-1.853-14.56-6.618-23.825c-4.765-9.266,10.324-30.444,15.089-33.62c4.765-3.177,20.649-2.647,36.268,0.529
					s27.796,6.618,27.267,10.854c-0.529,4.236-9.265,7.942-13.766,10.06C180.761,239.226,176.526,241.609,176.526,241.609z"/>
				<path style="fill:#525252;stroke:#263238;stroke-linecap:round;stroke-linejoin:round;stroke-miterlimit:10;" d="
					M159.054,259.081c1.059,1.324,4.236,1.059,6.354,0.529c2.118-0.529,0.794-5.559,1.059-6.618
					c0.265-1.059,9.265-2.912,10.324-3.971c0.539-0.539,0.46-2.452,0.253-4.2c-0.958-0.154-2.183-0.589-3.759-1.489
					c-6.147-3.513-13.172-4.391-19.758-3.074s-10.538-3.513-17.124,6.586c-6.484,9.943-4.888,14.349-11.542,14.902
					c1.089,4.601,1.589,8.644,2.162,11.365c1.059,5.03,3.177,4.5,5.824,2.912c2.647-1.588,5.03-4.765,5.824-8.471
					c0.794-3.706,0.529-6.353,2.647-12.177c2.118-5.824,8.736-9.265,11.913-6.089C156.406,252.463,157.995,257.757,159.054,259.081z
					"/>
				<path style="fill:none;stroke:#263238;stroke-linecap:round;stroke-linejoin:round;stroke-miterlimit:10;" d="M181.82,260.14
					c3.706-3.971,9.266-2.647,9.266-2.647"/>
				<path style="fill:#263238;" d="M187.766,265.081c-0.195,1.596-1,2.812-1.798,2.714c-0.798-0.097-1.287-1.47-1.093-3.067
					s1-2.812,1.798-2.714C187.471,262.112,187.96,263.485,187.766,265.081z"/>
				<path style="fill:#FFFFFF;stroke:#263238;stroke-linecap:round;stroke-linejoin:round;stroke-miterlimit:10;" d="
					M156.406,258.022c0,0,2.912-3.441-3.177-8.736c-6.089-5.294-11.118-0.794-12.177,3.441c-1.059,4.236,1.059,8.471,3.177,11.648
					s4.5,5.03,6.089,5.824c1.588,0.794,4.236,0.265,4.236,0.265"/>
				<polygon style="fill:#263238;stroke:#263238;stroke-linecap:round;stroke-linejoin:round;stroke-miterlimit:10;" points="
					164.878,295.084 155.612,287.936 155.612,301.437 				"/>
			</g>
			<polygon style="fill:#FFFFFF;stroke:#263238;stroke-linecap:round;stroke-linejoin:round;stroke-miterlimit:10;" points="
				126.757,277.347 151.376,309.379 147.141,322.086 115.374,285.554 			"/>
		</g>
		<path style="fill:none;stroke:#263238;stroke-linecap:round;stroke-linejoin:round;stroke-miterlimit:10;" d="M171.76,334.263
			c0,0-1.324-12.442-3.177-18.001"/>
		
			<line style="fill:#FFFFFF;stroke:#263238;stroke-linecap:round;stroke-linejoin:round;stroke-miterlimit:10;" x1="179.967" y1="390.915" x2="180.761" y2="386.15"/>
		<path style="fill:#FFFFFF;stroke:#263238;stroke-linecap:round;stroke-linejoin:round;stroke-miterlimit:10;" d="M194.527,319.968
			c0,0,0.794-12.442-2.118-19.59c-2.912-7.148-5.03-11.913-7.412-16.148c-2.383-4.236,1.059-11.118,2.383-13.766
			c1.324-2.647,3.441-6.618,6.353-5.824c2.912,0.794,1.324,2.647,0.53,3.706c-0.794,1.059-3.177,5.559-3.177,6.353
			s3.177,6.883,3.177,6.883s2.382-5.559,3.177-7.942c0.794-2.383,3.177-8.207,5.03-9.53c1.853-1.324,8.471,2.647,7.148,3.971
			c-1.324,1.324-4.236,1.853-4.236,1.853s-1.853,5.559-2.383,7.677c-0.529,2.118-0.794,2.912,0.794,4.5
			c1.588,1.588,7.677-13.236,9.001-15.354c1.324-2.118,2.912-3.177,5.03-3.177s7.412,1.853,6.618,3.971
			c-0.794,2.118-0.794,1.324-2.912,1.059c-2.118-0.265-3.971,1.059-3.971,1.059s-2.647,7.412-2.647,8.736
			c0,1.324-0.529,5.295-0.529,5.295s5.295-5.559,6.618-8.207c1.324-2.647,3.706-8.736,5.294-8.471
			c1.588,0.265,2.118,2.383,1.588,4.5c-0.53,2.118-2.118,6.618-2.647,8.736c-0.529,2.118-6.883,10.06-6.883,10.06
			s-0.529,11.913-1.059,16.678c-0.529,4.765-5.294,8.736-5.824,10.06c-0.529,1.324-2.647,10.589-2.647,10.589L194.527,319.968z"/>
		<g>
			<g>
				<path style="fill:#FFFFFF;stroke:#263238;stroke-linecap:round;stroke-linejoin:round;stroke-miterlimit:10;" d="
					M84.665,312.291c0,0,19.59-2.647,24.884,1.059c5.295,3.706,9.001,8.736,12.177,11.913s8.736,6.618,13.766,11.118
					c5.03,4.5,8.207,6.883,9.001,9.795c0.794,2.912,1.853,7.677,1.853,7.677l7.148-7.412c0,0,21.972-12.972,30.179-20.119
					c8.206-7.148,9.53-9.53,10.324-10.06c0.794-0.53-2.647-3.971,12.707,7.148c15.354,11.119,18.001,16.413,16.943,18.531
					c-1.059,2.118-23.826,29.914-42.886,44.209c-19.06,14.295-25.149,23.561-30.708,23.561c-5.559,0-20.913-5.559-28.855-12.178
					c-7.942-6.618-19.855-18.001-34.414-29.649"/>
				<path style="fill:none;stroke:#263238;stroke-linecap:round;stroke-linejoin:round;stroke-miterlimit:10;" d="M86.134,335.686
					c7.188-5.342,18.743-11.806,30.298-9.365"/>
				<path style="fill:none;stroke:#263238;stroke-linecap:round;stroke-linejoin:round;stroke-miterlimit:10;" d="M78.841,341.94
					c0,0,1.175-1.224,3.23-2.999"/>
				<path style="fill:none;stroke:#263238;stroke-linecap:round;stroke-linejoin:round;stroke-miterlimit:10;" d="M146.347,353.853
					c0,0-11.648,10.854-12.177,17.472c-0.529,6.618,8.471-7.148,9.795-9.795"/>
			</g>
			<path style="fill:none;stroke:#263238;stroke-linecap:round;stroke-linejoin:round;stroke-miterlimit:10;" d="M85.989,380.326
				c0,0,6.089-0.53,12.442-2.383"/>
		</g>
	</g>
</g>
<g id="Line">
	
		<line style="fill:none;stroke:#263238;stroke-linecap:round;stroke-linejoin:round;stroke-miterlimit:10;" x1="12.668" y1="451.482" x2="473.131" y2="451.482"/>
</g>
</svg>
